<mxfile host="app.diagrams.net" modified="2024-06-04T19:50:47.393Z" agent="Mozilla/5.0 (Windows NT 10.0; Win64; x64) AppleWebKit/537.36 (KHTML, like Gecko) Chrome/125.0.0.0 Safari/537.36" version="24.4.13" etag="L1tagwGzP_jcxHxYZCbt" type="github">
  <diagram name="Page-1" id="GKosjvCPh6i8OijbGOun">
    <mxGraphModel>
      <root>
        <mxCell id="0" />
        <mxCell id="1" parent="0" />
      </root>
    </mxGraphModel>
  </diagram>
</mxfile>
